<?xml version="1.0" standalone="no"?>
<!DOCTYPE svg PUBLIC "-//W3C//DTD SVG 20010904//EN"
 "http://www.w3.org/TR/2001/REC-SVG-20010904/DTD/svg10.dtd">
<svg xmlns="http://www.w3.org/2000/svg" width="353" height="707">
<path style="fill:#010101; stroke:none;" d="M0 0L0 707L353 707L353 0L0 0z"/>
<path style="fill:#e3ffff; stroke:none;" d="M228 144L228 145L287 146L269 144L228 144M226 145L212.028 149.318L211 170L211 223L211 453L212 453L212 247L212 182L212.218 152.065L226 145z"/>
<path style="fill:#a6fbfb; stroke:none;" d="M227 145L228 146L227 145z"/>
<path style="fill:#5efcfb; stroke:none;" d="M228 145L228 146L284 146L266 145L228 145z"/>
<path style="fill:#a6fbfb; stroke:none;" d="M284 145L285 146L284 145z"/>
<path style="fill:#5efcfb; stroke:none;" d="M226 146L225 148L226 146z"/>
<path style="fill:#12fcfc; stroke:none;" d="M48 450C51.9108 464.782 50.3909 480.8 53.4491 496C60.3886 530.491 83.8814 565.441 120 574L120 575C80.465 568.302 53.7326 537.512 43.8843 500C41.0823 489.327 32.0054 454.39 47 452C37.5133 448.029 38 457.398 38 464C38 477.528 39.471 490.888 43.0147 504C52.5506 539.285 76.3257 563.819 111 574.822C128.052 580.233 148.195 581.085 166 580.999C178.615 580.938 192.866 579.561 205 575.964C217.704 572.197 229.95 567.39 241 559.907C290.711 526.246 287 458.876 287 406L287 285L287 187C287 176.943 290.828 157.323 286.397 148.318C284.515 144.493 276.471 146 273 146C259.444 146 242.201 143.121 229.039 146.313C226.482 146.934 215.407 149.862 214.028 151.603C210.651 155.867 213 168.722 213 174L213 235L213 423C213 449.066 217.691 483.95 200.635 506C176.817 536.793 126.222 527.739 113.345 491C109.366 479.647 107.693 467.893 106.285 456C105.837 452.213 107.334 445.539 104.397 442.603C101.012 439.221 93.9851 441.897 90 442.565C76.5458 444.821 60.3454 443.804 48 450z"/>
<path style="fill:#a6fbfb; stroke:none;" d="M286 146L287 147L286 146z"/>
<path style="fill:#e3ffff; stroke:none;" d="M287 147L288 148L287 147z"/>
<path style="fill:#a6fbfb; stroke:none;" d="M212 151L225 149C220.884 147.273 214.743 147.118 212 151M287 148L287 443L288 443L288 235L288 175L287 148z"/>
<path style="fill:#5efcfb; stroke:none;" d="M214 149L214 150L225 150L214 149z"/>
<path style="fill:#a6fbfb; stroke:none;" d="M228 149L228 451L229 451L229 238L229 176L228 149z"/>
<path style="fill:#e3ffff; stroke:none;" d="M229 149L229 150L267 150L283 152C283.741 147.505 274.003 149 271 149L229 149z"/>
<path style="fill:#a6fbfb; stroke:none;" d="M283 149L284 150L283 149z"/>
<path style="fill:#5efcfb; stroke:none;" d="M213 150L214 151L213 150z"/>
<path style="fill:#010101; stroke:none;" d="M229 150L229 370C229 406.082 234.66 447.76 226.102 483C215.451 526.857 155.383 546.192 122.425 512.714C103.098 493.082 108.038 468.81 101 445C90.0713 447.059 79.0164 448.287 68 449.718C64.5097 450.172 57.4523 449.722 55.0278 452.742C50.1082 458.869 54.4428 479.728 55.5903 487C61.4011 523.825 82.7391 556.981 119 569.655C176.417 589.725 255.158 570.904 274.43 507C287.408 463.966 283 416.43 283 372L283 150L229 150z"/>
<path style="fill:#5efcfb; stroke:none;" d="M212 151L212 468L213 468L213 244L213 180L212 151M215 461L216 461L216 152L225 152L225 450C227.497 444.049 226 435.42 226 429L226 382L226 220L226 166C226 160.141 227.838 148.514 218.148 151.319C212.836 152.856 215 164.741 215 169L215 225L215 461z"/>
<path style="fill:#a6fbfb; stroke:none;" d="M216 152L217 153L216 152z"/>
<path style="fill:#e3ffff; stroke:none;" d="M213 487L214 487C221.002 457.588 217 424.11 217 394L217 238C217 210.38 214.538 181.394 218 154L224 154L223 466L224 466L225 152C213.136 152.042 216 161.599 216 171L216 230C216 315.431 219.711 401.965 213 487z"/>
<path style="fill:#a6fbfb; stroke:none;" d="M283 152L284 153L283 152z"/>
<path style="fill:#e3ffff; stroke:none;" d="M283 153L283 438L284 438L284 237L284 179L283 153z"/>
<path style="fill:#010101; stroke:none;" d="M218 154C212.96 181.148 217 212.385 217 240L217 411C217 433.101 217.63 455.116 215.173 477C214.206 485.612 212.823 499 206 505L207 508L203 512C230.259 492.638 224 445.046 224 416L224 154L218 154z"/>
<path style="fill:#a6fbfb; stroke:none;" d="M283 438L283 455L284 455L283 438z"/>
<path style="fill:#e3ffff; stroke:none;" d="M87 441L87 442C93.8543 441.943 103.482 437.327 106 446C109.223 435.742 91.8623 440.791 87 441z"/>
<path style="fill:#a6fbfb; stroke:none;" d="M99.6667 440.333L100.333 440.667L99.6667 440.333z"/>
<path style="fill:#5efcfb; stroke:none;" d="M101.667 440.333L102.333 440.667L101.667 440.333z"/>
<path style="fill:#a6fbfb; stroke:none;" d="M103 440L104 441L103 440M94 441L95 442L94 441z"/>
<path style="fill:#5efcfb; stroke:none;" d="M95 441L96 442L95 441M104 441L105 442L104 441z"/>
<path style="fill:#e3ffff; stroke:none;" d="M82 442L82 443L85 443L82 442z"/>
<path style="fill:#a6fbfb; stroke:none;" d="M85 442L85 443L89 443L85 442z"/>
<path style="fill:#5efcfb; stroke:none;" d="M89.6667 442.333L90.3333 442.667L89.6667 442.333z"/>
<path style="fill:#a6fbfb; stroke:none;" d="M105 442L106 443L105 442z"/>
<path style="fill:#e3ffff; stroke:none;" d="M72 443L72 444L78 444L72 443z"/>
<path style="fill:#a6fbfb; stroke:none;" d="M78 443L78 444L82 444L78 443z"/>
<path style="fill:#5efcfb; stroke:none;" d="M82.6667 443.333L83.3333 443.667L82.6667 443.333z"/>
<path style="fill:#e3ffff; stroke:none;" d="M287 443L287 460L288 460L287 443M66 444L66 445L71 445L66 444z"/>
<path style="fill:#a6fbfb; stroke:none;" d="M71 444L72 445L71 444z"/>
<path style="fill:#5efcfb; stroke:none;" d="M72 444L72 445L75 445L72 444M96 444L96 445L100 445L96 444z"/>
<path style="fill:#a6fbfb; stroke:none;" d="M100 444L100 445L103 445L100 444z"/>
<path style="fill:#e3ffff; stroke:none;" d="M36 481L37 481C37 474.207 32.7199 456.747 37.7423 451.603C41.8278 447.419 56.2312 446.733 62 446C58.523 444.753 54.5794 445.898 51 446.661C47.1064 447.492 39.4789 447.67 36.6034 450.6C31.397 455.904 36 474.047 36 481z"/>
<path style="fill:#a6fbfb; stroke:none;" d="M62 445L62 446L65 446L62 445z"/>
<path style="fill:#5efcfb; stroke:none;" d="M65 445L65 446L69 446L65 445M90.6667 445.333L91.3333 445.667L90.6667 445.333z"/>
<path style="fill:#a6fbfb; stroke:none;" d="M92.6667 445.333L93.3333 445.667L92.6667 445.333z"/>
<path style="fill:#e3ffff; stroke:none;" d="M94 445L94 446L99 446L94 445M101 445L102 458L103 458L101 445z"/>
<path style="fill:#a6fbfb; stroke:none;" d="M58 446L59 447L58 446z"/>
<path style="fill:#5efcfb; stroke:none;" d="M59 446L60 447L59 446M83.6667 446.333L84.3333 446.667L83.6667 446.333z"/>
<path style="fill:#a6fbfb; stroke:none;" d="M85.6667 446.333L86.3333 446.667L85.6667 446.333z"/>
<path style="fill:#e3ffff; stroke:none;" d="M87 446L87 447L93 447L87 446z"/>
<path style="fill:#a6fbfb; stroke:none;" d="M106 446L106 452L107 452L106 446M52 447L53 448L52 447z"/>
<path style="fill:#5efcfb; stroke:none;" d="M53.6667 447.333L54.3333 447.667L53.6667 447.333M76 447L76 448L79 448L76 447z"/>
<path style="fill:#a6fbfb; stroke:none;" d="M79 447L80 448L79 447z"/>
<path style="fill:#e3ffff; stroke:none;" d="M80 447L80 448L85 448L80 447z"/>
<path style="fill:#a6fbfb; stroke:none;" d="M45 449L45 450L50 449L45 449z"/>
<path style="fill:#5efcfb; stroke:none;" d="M50 448L51 449L50 448M69.6667 448.333L70.3333 448.667L69.6667 448.333z"/>
<path style="fill:#a6fbfb; stroke:none;" d="M71.6667 448.333L72.3333 448.667L71.6667 448.333z"/>
<path style="fill:#e3ffff; stroke:none;" d="M73 448L73 449L79 449L73 448z"/>
<path style="fill:#5efcfb; stroke:none;" d="M48 449L49 450L48 449M60 449L60 450L64 450L60 449z"/>
<path style="fill:#a6fbfb; stroke:none;" d="M64.6667 449.333L65.3333 449.667L64.6667 449.333z"/>
<path style="fill:#e3ffff; stroke:none;" d="M66 449L66 450L70 450L66 449z"/>
<path style="fill:#a6fbfb; stroke:none;" d="M37 450L36 467L37 467L39 450L37 450z"/>
<path style="fill:#5efcfb; stroke:none;" d="M39 450L39 451L47 451L47 452C34.16 453.169 39.9249 468.924 40 478L41 478L40 454L48 450L39 450M52 469L53 469C53 463.617 51.0048 454.238 56 451C49.7775 449.602 52 465.056 52 469z"/>
<path style="fill:#a6fbfb; stroke:none;" d="M56.6667 450.333L57.3333 450.667L56.6667 450.333z"/>
<path style="fill:#e3ffff; stroke:none;" d="M58 450L58 451L62 451L58 450z"/>
<path style="fill:#5efcfb; stroke:none;" d="M38 451L39 452L38 451z"/>
<path style="fill:#e3ffff; stroke:none;" d="M53 451L53 475L54 475C54 468.353 51.8776 457.441 56 452L53 451M228 451L228 464L229 464L228 451z"/>
<path style="fill:#5efcfb; stroke:none;" d="M37 452L37 475L38 475L37 452z"/>
<path style="fill:#a6fbfb; stroke:none;" d="M44 453L44 454L49 453L44 453z"/>
<path style="fill:#5efcfb; stroke:none;" d="M106 452L106 458L107 458L106 452z"/>
<path style="fill:#e3ffff; stroke:none;" d="M45 501L46 501C47.1733 490.817 43.1676 478.486 42.1698 468C41.6156 462.177 41.1618 456.091 48 455L48 474L49 474L49 453C32.8442 456.201 43.9523 488.985 45 501M107 453L108 454L107 453z"/>
<path style="fill:#a6fbfb; stroke:none;" d="M211 453L210 475L211 475L211 453z"/>
<path style="fill:#e3ffff; stroke:none;" d="M282 453L282 463L283 463L282 453z"/>
<path style="fill:#a6fbfb; stroke:none;" d="M40 454L40 469L41 469L42 454L40 454z"/>
<path style="fill:#5efcfb; stroke:none;" d="M49 454L49 470L50 470L49 454M286 454L286 459L287 459L286 454z"/>
<path style="fill:#010101; stroke:none;" d="M78 552C73.6498 542.107 65.7038 533.961 61.0841 524C51.0678 502.404 48 478.572 48 455C37.5497 455.814 42.5965 475.637 43.5756 483C46.3859 504.134 52.7115 524.681 67.1157 541.004C70.7139 545.081 72.9349 549.588 78 552z"/>
<path style="fill:#5efcfb; stroke:none;" d="M103 455L103 458L104 458L103 455z"/>
<path style="fill:#e3ffff; stroke:none;" d="M107 455L107 461L108 461L107 455z"/>
<path style="fill:#5efcfb; stroke:none;" d="M283 455L283 462L284 462L283 455z"/>
<path style="fill:#a6fbfb; stroke:none;" d="M224 456L224 460L225 460L224 456M103.333 458.667L103.667 459.333L103.333 458.667z"/>
<path style="fill:#5efcfb; stroke:none;" d="M227 459L227 462L228 462L227 459z"/>
<path style="fill:#a6fbfb; stroke:none;" d="M286 459L286 463L287 463L286 459z"/>
<path style="fill:#e3ffff; stroke:none;" d="M103 460L104 471L105 471L103 460z"/>
<path style="fill:#5efcfb; stroke:none;" d="M224 460L224 463L225 463L224 460M104 461L104 465L105 465L104 461z"/>
<path style="fill:#a6fbfb; stroke:none;" d="M107.333 461.667L107.667 462.333L107.333 461.667M215 461L214 475L215 475L215 461M227 462L227 467L228 467L227 462z"/>
<path style="fill:#5efcfb; stroke:none;" d="M107 463L107 466L108 466L107 463z"/>
<path style="fill:#e3ffff; stroke:none;" d="M108 463L108 469L109 469L108 463M210 463C208.95 487.447 200.615 514.809 174 522.363C167.864 524.104 160.337 523 154 523L154 524C160.691 524 168.495 525.1 175 523.387C193.708 518.461 204.457 501.615 208.741 484C210.148 478.215 212.323 468.587 210 463z"/>
<path style="fill:#5efcfb; stroke:none;" d="M214 463L214 469L215 469L214 463z"/>
<path style="fill:#a6fbfb; stroke:none;" d="M282 463L282 467L283 467L282 463z"/>
<path style="fill:#e3ffff; stroke:none;" d="M286 463L286 475L287 475L286 463z"/>
<path style="fill:#a6fbfb; stroke:none;" d="M104.333 465.667L104.667 466.333L104.333 465.667z"/>
<path style="fill:#e3ffff; stroke:none;" d="M228.333 465.667L228.667 466.333L228.333 465.667z"/>
<path style="fill:#a6fbfb; stroke:none;" d="M223 466L223 471L224 471L223 466z"/>
<path style="fill:#e3ffff; stroke:none;" d="M227 467L226 482L227 482L227 467z"/>
<path style="fill:#5efcfb; stroke:none;" d="M282 467L282 473L283 473L282 467M285 468L285 473L286 473L285 468M105 469L105 472L106 472L105 469z"/>
<path style="fill:#a6fbfb; stroke:none;" d="M108.333 469.667L108.667 470.333L108.333 469.667z"/>
<path style="fill:#e3ffff; stroke:none;" d="M222 469L222 475L223 475L222 469M281 469L281 475L282 475L281 469z"/>
<path style="fill:#a6fbfb; stroke:none;" d="M49 470L49 476L50 476L49 470z"/>
<path style="fill:#e3ffff; stroke:none;" d="M109 470L109 474L110 474L109 470z"/>
<path style="fill:#5efcfb; stroke:none;" d="M211 470L211 475L212 475L211 470M108.333 471.667L108.667 472.333L108.333 471.667M223 471L223 474L224 474L223 471M226 471L226 475L227 475L226 471z"/>
<path style="fill:#a6fbfb; stroke:none;" d="M41 472L41 484L42 484L41 472M105 472L106 473L105 472z"/>
<path style="fill:#5efcfb; stroke:none;" d="M213 472L212 483L213 483L213 472z"/>
<path style="fill:#e3ffff; stroke:none;" d="M105 473L106 482L107 482L105 473z"/>
<path style="fill:#a6fbfb; stroke:none;" d="M285 473L285 476L286 476L285 473M109 474L109 477L110 477L109 474M37 475L38 487L39 487L37 475M53.3333 475.667L53.6667 476.333L53.3333 475.667z"/>
<path style="fill:#5efcfb; stroke:none;" d="M106.333 475.667L106.667 476.333L106.333 475.667M210 475L209 486L210 486L210 475z"/>
<path style="fill:#a6fbfb; stroke:none;" d="M222.333 475.667L222.667 476.333L222.333 475.667M226 475L227 476L226 475M281.333 475.667L281.667 476.333L281.333 475.667z"/>
<path style="fill:#e3ffff; stroke:none;" d="M49 476L53 503L54 503L49 476z"/>
<path style="fill:#5efcfb; stroke:none;" d="M50.3333 476.667L50.6667 477.333L50.3333 476.667z"/>
<path style="fill:#e3ffff; stroke:none;" d="M110 476L111 483L112 483L110 476M221 476L220 487L221 487L221 476M280 476L280 484L281 484L280 476M285 476L285 479L286 479L285 476z"/>
<path style="fill:#5efcfb; stroke:none;" d="M53 477L53 480L54 480L53 477z"/>
<path style="fill:#e3ffff; stroke:none;" d="M54 477L54 483L55 483L54 477z"/>
<path style="fill:#a6fbfb; stroke:none;" d="M106.333 477.667L106.667 478.333L106.333 477.667z"/>
<path style="fill:#5efcfb; stroke:none;" d="M109.333 477.667L109.667 478.333L109.333 477.667M222 477L222 481L223 481L222 477M281 477L281 480L282 480L281 477M284.333 477.667L284.667 478.333L284.333 477.667z"/>
<path style="fill:#a6fbfb; stroke:none;" d="M50 478L50 481L51 481L50 478z"/>
<path style="fill:#5efcfb; stroke:none;" d="M225 478L225 481L226 481L225 478z"/>
<path style="fill:#a6fbfb; stroke:none;" d="M284.333 479.667L284.667 480.333L284.333 479.667M110 480L111 481L110 480z"/>
<path style="fill:#5efcfb; stroke:none;" d="M38 481L39 489L40 489L38 481M107 481L108 482L107 481z"/>
<path style="fill:#a6fbfb; stroke:none;" d="M209 481L209 484L210 484L209 481M213.333 481.667L213.667 482.333L213.333 481.667M225.333 481.667L225.667 482.333L225.333 481.667z"/>
<path style="fill:#e3ffff; stroke:none;" d="M284 481L284 487L285 487L284 481z"/>
<path style="fill:#a6fbfb; stroke:none;" d="M107 482L108 483L107 482M54 483L54 487L55 487L54 483z"/>
<path style="fill:#e3ffff; stroke:none;" d="M107 483L110 495L111 495L107 483z"/>
<path style="fill:#a6fbfb; stroke:none;" d="M111 483L112 484L111 483M212 483L212 489L213 489L212 483M221 483L222 484L221 483z"/>
<path style="fill:#e3ffff; stroke:none;" d="M225 483L224 489L225 489L225 483M37 484L38 493L39 493L37 484z"/>
<path style="fill:#5efcfb; stroke:none;" d="M41 484L42 495L43 495L41 484M51 484L51 487L52 487L51 484M111.333 484.667L111.667 485.333L111.333 484.667z"/>
<path style="fill:#e3ffff; stroke:none;" d="M112 484L114 492L115 492L112 484z"/>
<path style="fill:#a6fbfb; stroke:none;" d="M208 484L208 488L209 488L208 484z"/>
<path style="fill:#5efcfb; stroke:none;" d="M211 484L210 492L211 492L211 484M221 484L222 485L221 484M224 484L225 485L224 484z"/>
<path style="fill:#a6fbfb; stroke:none;" d="M280.333 484.667L280.667 485.333L280.333 484.667z"/>
<path style="fill:#5efcfb; stroke:none;" d="M283 484L283 487L284 487L283 484z"/>
<path style="fill:#a6fbfb; stroke:none;" d="M42 485L42 489L43 489L42 485z"/>
<path style="fill:#5efcfb; stroke:none;" d="M108 485L109 486L108 485z"/>
<path style="fill:#a6fbfb; stroke:none;" d="M224 485L225 486L224 485z"/>
<path style="fill:#e3ffff; stroke:none;" d="M55 486L55 489L56 489L55 486z"/>
<path style="fill:#a6fbfb; stroke:none;" d="M108 486L109 487L108 486z"/>
<path style="fill:#e3ffff; stroke:none;" d="M279 486L278 494L279 494L279 486z"/>
<path style="fill:#5efcfb; stroke:none;" d="M280.333 486.667L280.667 487.333L280.333 486.667z"/>
<path style="fill:#a6fbfb; stroke:none;" d="M51.3333 487.667L51.6667 488.333L51.3333 487.667z"/>
<path style="fill:#5efcfb; stroke:none;" d="M54.3333 487.667L54.6667 488.333L54.3333 487.667z"/>
<path style="fill:#a6fbfb; stroke:none;" d="M112 487L113 488L112 487M220 487L221 488L220 487z"/>
<path style="fill:#5efcfb; stroke:none;" d="M223.333 487.667L223.667 488.333L223.333 487.667z"/>
<path style="fill:#a6fbfb; stroke:none;" d="M283.333 487.667L283.667 488.333L283.333 487.667z"/>
<path style="fill:#5efcfb; stroke:none;" d="M109 488L110 489L109 488M112 488L113 489L112 488M208 488L207 494L208 494L208 488z"/>
<path style="fill:#e3ffff; stroke:none;" d="M219 488C215.157 497.353 210.124 504.816 203 512L207 508L206 505C210.941 502.123 212.204 494.387 213 489L212 489C208.892 499.738 203.302 510.443 194 517L194 518C203.268 514.607 222.231 499.783 219 488z"/>
<path style="fill:#5efcfb; stroke:none;" d="M220.333 488.667L220.667 489.333L220.333 488.667z"/>
<path style="fill:#a6fbfb; stroke:none;" d="M39 489L39 495L40 495L39 489M55.3333 489.667L55.6667 490.333L55.3333 489.667M109 489L110 490L109 489M223 489L224 490L223 489M279.333 489.667L279.667 490.333L279.333 489.667z"/>
<path style="fill:#5efcfb; stroke:none;" d="M282.333 489.667L282.667 490.333L282.333 489.667z"/>
<path style="fill:#e3ffff; stroke:none;" d="M283 489L283 492L284 492L283 489z"/>
<path style="fill:#5efcfb; stroke:none;" d="M52.3333 490.667L52.6667 491.333L52.3333 490.667z"/>
<path style="fill:#a6fbfb; stroke:none;" d="M113 490L114 491L113 490M207 490L208 491L207 490M211 490L212 491L211 490z"/>
<path style="fill:#5efcfb; stroke:none;" d="M222.333 490.667L222.667 491.333L222.333 490.667z"/>
<path style="fill:#e3ffff; stroke:none;" d="M223 490L217 504C220.746 500.789 224.495 495.069 223 490z"/>
<path style="fill:#5efcfb; stroke:none;" d="M55 491L55 494L56 494L55 491M110 491L111 492L110 491M113 491L114 492L113 491z"/>
<path style="fill:#a6fbfb; stroke:none;" d="M206 491L205 496L206 496L206 491z"/>
<path style="fill:#5efcfb; stroke:none;" d="M219 491L220 492L219 491M279.333 491.667L279.667 492.333L279.333 491.667z"/>
<path style="fill:#a6fbfb; stroke:none;" d="M282.333 491.667L282.667 492.333L282.333 491.667M52.3333 492.667L52.6667 493.333L52.3333 492.667z"/>
<path style="fill:#e3ffff; stroke:none;" d="M56 492L57 498L58 498L56 492z"/>
<path style="fill:#a6fbfb; stroke:none;" d="M114.333 492.667L114.667 493.333L114.333 492.667M210 492L210 495L211 495L210 492M222 492L223 493L222 492z"/>
<path style="fill:#5efcfb; stroke:none;" d="M40 493L41 501L42 501L40 493z"/>
<path style="fill:#a6fbfb; stroke:none;" d="M43 493L44 498L45 498L43 493z"/>
<path style="fill:#5efcfb; stroke:none;" d="M111 493L112 494L111 493z"/>
<path style="fill:#e3ffff; stroke:none;" d="M115.333 493.667L115.667 494.333L115.333 493.667z"/>
<path style="fill:#a6fbfb; stroke:none;" d="M218 493L219 494L218 493z"/>
<path style="fill:#e3ffff; stroke:none;" d="M282 493L281 502L282 502L282 493z"/>
<path style="fill:#a6fbfb; stroke:none;" d="M111.333 494.667L111.667 495.333L111.333 494.667z"/>
<path style="fill:#5efcfb; stroke:none;" d="M114 494L115 495L114 494M209 494L208 498L209 498L209 494M218 494L219 495L218 494M221 494L222 495L221 494z"/>
<path style="fill:#a6fbfb; stroke:none;" d="M278 494L279 495L278 494z"/>
<path style="fill:#e3ffff; stroke:none;" d="M39 495L40 503L41 503L39 495z"/>
<path style="fill:#a6fbfb; stroke:none;" d="M115 495L116 496L115 495z"/>
<path style="fill:#5efcfb; stroke:none;" d="M206 495L205 498L206 495M217.333 495.667L217.667 496.333L217.333 495.667z"/>
<path style="fill:#a6fbfb; stroke:none;" d="M221 495L222 496L221 495z"/>
<path style="fill:#e3ffff; stroke:none;" d="M277.333 495.667L277.667 496.333L277.333 495.667z"/>
<path style="fill:#5efcfb; stroke:none;" d="M278 495L279 496L278 495M281 495L282 496L281 495z"/>
<path style="fill:#a6fbfb; stroke:none;" d="M40.3333 496.667L40.6667 497.333L40.3333 496.667z"/>
<path style="fill:#5efcfb; stroke:none;" d="M43 496L44 503L45 503L43 496M53 496L54 497L53 496z"/>
<path style="fill:#a6fbfb; stroke:none;" d="M56 496L57 497L56 496z"/>
<path style="fill:#e3ffff; stroke:none;" d="M111 496L113 499L111 496z"/>
<path style="fill:#5efcfb; stroke:none;" d="M112 496L113 497L112 496M115 496L116 497L115 496z"/>
<path style="fill:#e3ffff; stroke:none;" d="M116 496C120.212 505.774 127.144 513.692 137 518L137 517L116 496z"/>
<path style="fill:#a6fbfb; stroke:none;" d="M209 496L210 497L209 496z"/>
<path style="fill:#5efcfb; stroke:none;" d="M220 496L221 497L220 496z"/>
<path style="fill:#a6fbfb; stroke:none;" d="M281 496L282 497L281 496M53 497L54 498L53 497z"/>
<path style="fill:#5efcfb; stroke:none;" d="M56 497L57 498L56 497z"/>
<path style="fill:#a6fbfb; stroke:none;" d="M116 497L117 498L116 497M204 497L203 501L204 501L204 497M216 497L217 498L216 497M220 497L221 498L220 497M277.333 497.667L277.667 498.333L277.333 497.667M57.3333 498.667L57.6667 499.333L57.3333 498.667z"/>
<path style="fill:#5efcfb; stroke:none;" d="M113 498L114 499L113 498M116 498L117 499L116 498z"/>
<path style="fill:#a6fbfb; stroke:none;" d="M208 498L207 501L208 498z"/>
<path style="fill:#e3ffff; stroke:none;" d="M276 498L275 506L276 506L276 498z"/>
<path style="fill:#a6fbfb; stroke:none;" d="M113 499L114 500L113 499z"/>
<path style="fill:#5efcfb; stroke:none;" d="M117 499L118 500L117 499M204.333 499.667L204.667 500.333L204.333 499.667M207 499L208 500L207 499z"/>
<path style="fill:#e3ffff; stroke:none;" d="M212 499L213 500L212 499z"/>
<path style="fill:#a6fbfb; stroke:none;" d="M215 499L216 500L215 499M219 499L220 500L219 499z"/>
<path style="fill:#5efcfb; stroke:none;" d="M277.333 499.667L277.667 500.333L277.333 499.667M280.333 499.667L280.667 500.333L280.333 499.667M54.3333 500.667L54.6667 501.333L54.3333 500.667M57.3333 500.667L57.6667 501.333L57.3333 500.667z"/>
<path style="fill:#e3ffff; stroke:none;" d="M58 500L59 507L60 507L58 500M113 500C117.271 511.644 129.211 521.604 141 525L141 524C128.317 518.718 122.095 509.495 113 500z"/>
<path style="fill:#5efcfb; stroke:none;" d="M114 500L115 501L114 500M206 500L190 520L193 519C196.626 512.942 206.775 508.248 206 500M215 500L216 501L215 500M218 500L219 501L218 500z"/>
<path style="fill:#a6fbfb; stroke:none;" d="M41 501L42 507L43 507L41 501M45 501L46 506L47 506L45 501M114 501L115 502L114 501M118 501L119 502L118 501z"/>
<path style="fill:#5efcfb; stroke:none;" d="M203 501L204 502L203 501M214 501L215 502L214 501z"/>
<path style="fill:#a6fbfb; stroke:none;" d="M218 501L219 502L218 501M280.333 501.667L280.667 502.333L280.333 501.667z"/>
<path style="fill:#5efcfb; stroke:none;" d="M42.3333 502.667L42.6667 503.333L42.3333 502.667z"/>
<path style="fill:#e3ffff; stroke:none;" d="M46.3333 502.667L46.6667 503.333L46.3333 502.667z"/>
<path style="fill:#a6fbfb; stroke:none;" d="M54.3333 502.667L54.6667 503.333L54.3333 502.667z"/>
<path style="fill:#5efcfb; stroke:none;" d="M115 502L116 503L115 502z"/>
<path style="fill:#a6fbfb; stroke:none;" d="M119 502L120 503L119 502M202 502L196 510L202 502M206 502L207 503L206 502M217 502L218 503L217 502M276 502L277 503L276 502M58 503L59 504L58 503z"/>
<path style="fill:#5efcfb; stroke:none;" d="M119 503L120 504L119 503M202 503L203 504L202 503z"/>
<path style="fill:#a6fbfb; stroke:none;" d="M205 503L206 504L205 503M212 503L213 504L212 503z"/>
<path style="fill:#5efcfb; stroke:none;" d="M213 503L214 504L213 503M216 503L217 504L216 503M276 503L277 504L276 503M279.333 503.667L279.667 504.333L279.333 503.667z"/>
<path style="fill:#e3ffff; stroke:none;" d="M280 503L262 541C269.555 534.756 282.853 513.257 280 503M41 504L41 507L42 507L41 504z"/>
<path style="fill:#5efcfb; stroke:none;" d="M45.3333 504.667L45.6667 505.333L45.3333 504.667z"/>
<path style="fill:#e3ffff; stroke:none;" d="M47 504C49.0639 536.464 80.4989 560.334 108 571L108 570C83.339 555.593 62.8348 535.855 56 507L55 507C56.7038 524.001 69.2426 538.206 78 552C61.3219 540.003 56.8449 520.582 47 504M54.3333 504.667L54.6667 505.333L54.3333 504.667z"/>
<path style="fill:#5efcfb; stroke:none;" d="M55.3333 504.667L55.6667 505.333L55.3333 504.667M58 504L59 505L58 504z"/>
<path style="fill:#a6fbfb; stroke:none;" d="M116 504L117 505L116 504M120 504L121 505L120 504z"/>
<path style="fill:#5efcfb; stroke:none;" d="M201.333 504.667L201.667 505.333L201.333 504.667M212 504L213 505L212 504z"/>
<path style="fill:#a6fbfb; stroke:none;" d="M216 504L215 506L216 504z"/>
<path style="fill:#5efcfb; stroke:none;" d="M43 505L44 510L45 510L43 505M117 505L118 506L117 505z"/>
<path style="fill:#a6fbfb; stroke:none;" d="M204 505L205 506L204 505z"/>
<path style="fill:#5efcfb; stroke:none;" d="M211 505L212 506L211 505z"/>
<path style="fill:#e3ffff; stroke:none;" d="M216 505L217 506L216 505z"/>
<path style="fill:#a6fbfb; stroke:none;" d="M279 505L280 506L279 505z"/>
<path style="fill:#5efcfb; stroke:none;" d="M46 506L47 512L48 512L46 506z"/>
<path style="fill:#a6fbfb; stroke:none;" d="M55 506L56 507L55 506z"/>
<path style="fill:#5efcfb; stroke:none;" d="M121 506L122 507L121 506M200 506L201 507L200 506z"/>
<path style="fill:#a6fbfb; stroke:none;" d="M210 506L211 507L210 506z"/>
<path style="fill:#e3ffff; stroke:none;" d="M215 506L214 508L216 508L215 506z"/>
<path style="fill:#a6fbfb; stroke:none;" d="M275 506L276 507L275 506z"/>
<path style="fill:#e3ffff; stroke:none;" d="M42 507C46.738 542.013 84.4869 577.471 120 579L120 578C93.9281 574.685 68.5974 556.919 54.8611 534.83C49.4178 526.077 47.353 515.507 42 507z"/>
<path style="fill:#a6fbfb; stroke:none;" d="M59 507L60 508L59 507M118 507L119 508L118 507z"/>
<path style="fill:#5efcfb; stroke:none;" d="M122 507L123 508L122 507M199 507L200 508L199 507z"/>
<path style="fill:#a6fbfb; stroke:none;" d="M203 507L204 508L203 507M209 507L210 508L209 507z"/>
<path style="fill:#e3ffff; stroke:none;" d="M274 507C267.313 526.644 254.514 537.775 243 554C254.717 545.987 263.76 533.819 269.691 521C271.588 516.899 274.939 511.539 274 507z"/>
<path style="fill:#5efcfb; stroke:none;" d="M275 507L276 508L275 507M278 507L279 508L278 507M56 508L57 509L56 508M59 508L60 509L59 508z"/>
<path style="fill:#e3ffff; stroke:none;" d="M60 508L70 531L71 531L60 508z"/>
<path style="fill:#a6fbfb; stroke:none;" d="M119 508L120 509L119 508z"/>
<path style="fill:#5efcfb; stroke:none;" d="M123 508L124 509L123 508M198 508L199 509L198 508z"/>
<path style="fill:#a6fbfb; stroke:none;" d="M202.333 508.667L202.667 509.333L202.333 508.667M208 508L209 509L208 508z"/>
<path style="fill:#5efcfb; stroke:none;" d="M212 508L213 509L212 508z"/>
<path style="fill:#a6fbfb; stroke:none;" d="M213 508L212 510L213 508M43 509L44 510L43 509M47 509L48 510L47 509M56 509L57 510L56 509z"/>
<path style="fill:#5efcfb; stroke:none;" d="M120 509L121 510L120 509M124 509L125 510L124 509M197 509L198 510L197 509z"/>
<path style="fill:#a6fbfb; stroke:none;" d="M207 509L208 510L207 509z"/>
<path style="fill:#e3ffff; stroke:none;" d="M213 509L214 510L213 509z"/>
<path style="fill:#a6fbfb; stroke:none;" d="M274 509L275 510L274 509z"/>
<path style="fill:#5efcfb; stroke:none;" d="M277 509L278 510L277 509z"/>
<path style="fill:#a6fbfb; stroke:none;" d="M44 510L44 513L45 513L44 510M48 510L48 514L49 514L48 510z"/>
<path style="fill:#5efcfb; stroke:none;" d="M57 510L58 511L57 510z"/>
<path style="fill:#a6fbfb; stroke:none;" d="M60 510L61 511L60 510z"/>
<path style="fill:#5efcfb; stroke:none;" d="M121 510L122 511L121 510M125 510L126 511L125 510M196 510L197 511L196 510z"/>
<path style="fill:#a6fbfb; stroke:none;" d="M201 510L202 511L201 510z"/>
<path style="fill:#5efcfb; stroke:none;" d="M206 510L207 511L206 510z"/>
<path style="fill:#e3ffff; stroke:none;" d="M211 510L208 515L211 510z"/>
<path style="fill:#5efcfb; stroke:none;" d="M274 510L275 511L274 510z"/>
<path style="fill:#a6fbfb; stroke:none;" d="M277.333 510.667L277.667 511.333L277.333 510.667z"/>
<path style="fill:#5efcfb; stroke:none;" d="M45 511L46 516L47 516L45 511z"/>
<path style="fill:#a6fbfb; stroke:none;" d="M57.3333 511.667L57.6667 512.333L57.3333 511.667z"/>
<path style="fill:#5efcfb; stroke:none;" d="M60 511L61 512L60 511M122 511L123 512L122 511M126 511L127 512L126 511z"/>
<path style="fill:#a6fbfb; stroke:none;" d="M194 511L195 512L194 511z"/>
<path style="fill:#5efcfb; stroke:none;" d="M195 511L190 517L195 511z"/>
<path style="fill:#a6fbfb; stroke:none;" d="M200 511L201 512L200 511z"/>
<path style="fill:#5efcfb; stroke:none;" d="M205 511L206 512L205 511z"/>
<path style="fill:#a6fbfb; stroke:none;" d="M210 511L211 512L210 511z"/>
<path style="fill:#5efcfb; stroke:none;" d="M127 512L128 513L127 512z"/>
<path style="fill:#a6fbfb; stroke:none;" d="M199 512L200 513L199 512z"/>
<path style="fill:#5efcfb; stroke:none;" d="M204 512L205 513L204 512z"/>
<path style="fill:#a6fbfb; stroke:none;" d="M209 512L210 513L209 512M273 512L274 513L273 512M61 513L62 514L61 513z"/>
<path style="fill:#5efcfb; stroke:none;" d="M124 513L125 514L124 513z"/>
<path style="fill:#a6fbfb; stroke:none;" d="M129 513L130 514L129 513M192 513L193 514L192 513M198 513L199 514L198 513M202 513L203 514L202 513M208 513L209 514L208 513z"/>
<path style="fill:#5efcfb; stroke:none;" d="M273 513L274 514L273 513z"/>
<path style="fill:#a6fbfb; stroke:none;" d="M276 513L277 514L276 513M45.3333 514.667L45.6667 515.333L45.3333 514.667z"/>
<path style="fill:#5efcfb; stroke:none;" d="M48 514L49 518L50 518L48 514M58 514L59 515L58 514M61 514L62 515L61 514M125 514L126 515L125 514M130 514L131 515L130 514z"/>
<path style="fill:#a6fbfb; stroke:none;" d="M191 514L192 515L191 514M197 514L198 515L197 514z"/>
<path style="fill:#5efcfb; stroke:none;" d="M201 514L202 515L201 514M206 514L207 515L206 514z"/>
<path style="fill:#a6fbfb; stroke:none;" d="M207 514L208 515L207 514M272 514L273 515L272 514M49 515L50 516L49 515z"/>
<path style="fill:#5efcfb; stroke:none;" d="M126 515L127 516L126 515M131 515L132 516L131 515z"/>
<path style="fill:#a6fbfb; stroke:none;" d="M190 515L191 516L190 515M196 515L197 516L196 515M199 515L200 516L199 515M205 515L204 517L205 515z"/>
<path style="fill:#e3ffff; stroke:none;" d="M206 515L207 516L206 515z"/>
<path style="fill:#5efcfb; stroke:none;" d="M272 515L273 516L272 515M275 515L276 516L275 515z"/>
<path style="fill:#a6fbfb; stroke:none;" d="M46 516L47 521L48 521L46 516M50 516L51 520L52 520L50 516z"/>
<path style="fill:#5efcfb; stroke:none;" d="M62 516L63 517L62 516z"/>
<path style="fill:#a6fbfb; stroke:none;" d="M127 516L128 517L127 516z"/>
<path style="fill:#5efcfb; stroke:none;" d="M133 516L134 517L133 516z"/>
<path style="fill:#a6fbfb; stroke:none;" d="M184 519L184 520L190 517L184 519M194.667 516.333L195.333 516.667L194.667 516.333M197 516L198 517L197 516z"/>
<path style="fill:#5efcfb; stroke:none;" d="M198 516L199 517L198 516M203 516L201 519L203 516z"/>
<path style="fill:#e3ffff; stroke:none;" d="M205 516L206 517L205 516z"/>
<path style="fill:#a6fbfb; stroke:none;" d="M271 516L272 517L271 516M275 516L276 517L275 516z"/>
<path style="fill:#5efcfb; stroke:none;" d="M59 517L60 518L59 517M129 517L130 518L129 517M134 517L135 518L134 517z"/>
<path style="fill:#a6fbfb; stroke:none;" d="M135 517L136 518L135 517z"/>
<path style="fill:#5efcfb; stroke:none;" d="M188 517L189 518L188 517z"/>
<path style="fill:#a6fbfb; stroke:none;" d="M193 517L192 519L194 519L193 517z"/>
<path style="fill:#5efcfb; stroke:none;" d="M196 517L197 518L196 517z"/>
<path style="fill:#e3ffff; stroke:none;" d="M203 517L204 518L203 517z"/>
<path style="fill:#5efcfb; stroke:none;" d="M271 517L272 518L271 517M47 518L48 519L47 518z"/>
<path style="fill:#a6fbfb; stroke:none;" d="M59 518L60 519L59 518z"/>
<path style="fill:#5efcfb; stroke:none;" d="M63 518L64 519L63 518z"/>
<path style="fill:#a6fbfb; stroke:none;" d="M130 518L131 519L130 518z"/>
<path style="fill:#5efcfb; stroke:none;" d="M136 518L137 519L136 518z"/>
<path style="fill:#a6fbfb; stroke:none;" d="M137 518L138 519L137 518z"/>
<path style="fill:#e3ffff; stroke:none;" d="M138 518L139 519L138 518z"/>
<path style="fill:#5efcfb; stroke:none;" d="M187 518L188 519L187 518M194 518L195 519L194 518z"/>
<path style="fill:#e3ffff; stroke:none;" d="M202 518L203 519L202 518z"/>
<path style="fill:#5efcfb; stroke:none;" d="M274 518L275 519L274 518M48 519L53 531L54 531L48 519M50 519L51 520L50 519M60 519L61 520L60 519z"/>
<path style="fill:#a6fbfb; stroke:none;" d="M131 519L132 520L131 519z"/>
<path style="fill:#5efcfb; stroke:none;" d="M132 519L133 520L132 519M138 519L139 520L138 519z"/>
<path style="fill:#a6fbfb; stroke:none;" d="M139 519L140 520L139 519z"/>
<path style="fill:#e3ffff; stroke:none;" d="M140.667 519.333L141.333 519.667L140.667 519.333z"/>
<path style="fill:#5efcfb; stroke:none;" d="M185 519L186 520L185 519M199 519L200 520L199 519z"/>
<path style="fill:#a6fbfb; stroke:none;" d="M200 519L201 520L200 519z"/>
<path style="fill:#e3ffff; stroke:none;" d="M201 519L202 520L201 519z"/>
<path style="fill:#a6fbfb; stroke:none;" d="M270 519L271 520L270 519M274 519L275 520L274 519z"/>
<path style="fill:#5efcfb; stroke:none;" d="M51.3333 520.667L51.6667 521.333L51.3333 520.667z"/>
<path style="fill:#a6fbfb; stroke:none;" d="M60 520L61 521L60 520M64 520L65 521L64 520M133 520L134 521L133 520z"/>
<path style="fill:#5efcfb; stroke:none;" d="M134 520L135 521L134 520M141 520L142 521L141 520z"/>
<path style="fill:#a6fbfb; stroke:none;" d="M142 520L143 521L142 520z"/>
<path style="fill:#e3ffff; stroke:none;" d="M143.667 520.333L144.333 520.667L143.667 520.333z"/>
<path style="fill:#a6fbfb; stroke:none;" d="M180 522L183 521L180 522z"/>
<path style="fill:#5efcfb; stroke:none;" d="M183.667 520.333L184.333 520.667L183.667 520.333M188.667 520.333L189.333 520.667L188.667 520.333M197 520L198 521L197 520z"/>
<path style="fill:#e3ffff; stroke:none;" d="M198.667 520.333L199.333 520.667L198.667 520.333z"/>
<path style="fill:#5efcfb; stroke:none;" d="M270 520L271 521L270 520M273 520L274 521L273 520z"/>
<path style="fill:#a6fbfb; stroke:none;" d="M52 521L53 525L54 525L52 521z"/>
<path style="fill:#5efcfb; stroke:none;" d="M61 521L62 522L61 521M64 521L65 522L64 521z"/>
<path style="fill:#a6fbfb; stroke:none;" d="M135 521L136 522L135 521z"/>
<path style="fill:#5efcfb; stroke:none;" d="M136 521L137 522L136 521z"/>
<path style="fill:#a6fbfb; stroke:none;" d="M144.667 521.333L145.333 521.667L144.667 521.333z"/>
<path style="fill:#e3ffff; stroke:none;" d="M146 521L146 522L149 522L146 521z"/>
<path style="fill:#5efcfb; stroke:none;" d="M181 521L182 522L181 521M195 521L196 522L195 521z"/>
<path style="fill:#e3ffff; stroke:none;" d="M196.667 521.333L197.333 521.667L196.667 521.333z"/>
<path style="fill:#a6fbfb; stroke:none;" d="M269 521L270 522L269 521M273 521L274 522L273 521M48.3333 522.667L48.6667 523.333L48.3333 522.667M61 522L62 523L61 522M65 522L66 523L65 522z"/>
<path style="fill:#5efcfb; stroke:none;" d="M137 522L138 523L137 522M147 522L148 523L147 522z"/>
<path style="fill:#a6fbfb; stroke:none;" d="M148.667 522.333L149.333 522.667L148.667 522.333z"/>
<path style="fill:#e3ffff; stroke:none;" d="M150 522L150 523L153 523L150 522z"/>
<path style="fill:#a6fbfb; stroke:none;" d="M175 523L175 524L179 523L175 523z"/>
<path style="fill:#5efcfb; stroke:none;" d="M179.667 522.333L180.333 522.667L179.667 522.333M193 522L194 523L193 522z"/>
<path style="fill:#a6fbfb; stroke:none;" d="M194 522L195 523L194 522z"/>
<path style="fill:#e3ffff; stroke:none;" d="M195 522L196 523L195 522z"/>
<path style="fill:#5efcfb; stroke:none;" d="M269 522L270 523L269 522M272 522L273 523L272 522M52.3333 523.667L52.6667 524.333L52.3333 523.667M65 523L66 524L65 523z"/>
<path style="fill:#a6fbfb; stroke:none;" d="M139 523L140 524L139 523z"/>
<path style="fill:#5efcfb; stroke:none;" d="M140 523L141 524L140 523M150.667 523.333L151.333 523.667L150.667 523.333z"/>
<path style="fill:#a6fbfb; stroke:none;" d="M152.667 523.333L153.333 523.667L152.667 523.333z"/>
<path style="fill:#5efcfb; stroke:none;" d="M177 523L178 524L177 523M190 523L191 524L190 523z"/>
<path style="fill:#a6fbfb; stroke:none;" d="M191 523L192 524L191 523z"/>
<path style="fill:#e3ffff; stroke:none;" d="M192.667 523.333L193.333 523.667L192.667 523.333z"/>
<path style="fill:#a6fbfb; stroke:none;" d="M268 523L269 524L268 523M272 523L273 524L272 523M49 524L50 525L49 524M62 524L63 525L62 524M141 524L142 525L141 524z"/>
<path style="fill:#5efcfb; stroke:none;" d="M142 524L143 525L142 524M157 524L157 525L164 525L157 524z"/>
<path style="fill:#a6fbfb; stroke:none;" d="M164 524L164 525L167 525L164 524z"/>
<path style="fill:#5efcfb; stroke:none;" d="M167 524L167 525L173 525L167 524M187.667 524.333L188.333 524.667L187.667 524.333z"/>
<path style="fill:#a6fbfb; stroke:none;" d="M189 524L190 525L189 524z"/>
<path style="fill:#e3ffff; stroke:none;" d="M190.667 524.333L191.333 524.667L190.667 524.333z"/>
<path style="fill:#5efcfb; stroke:none;" d="M268 524L269 525L268 524M271 524L272 525L271 524M53 525L55 528L53 525M66 525L67 526L66 525z"/>
<path style="fill:#e3ffff; stroke:none;" d="M142.667 525.333L143.333 525.667L142.667 525.333z"/>
<path style="fill:#a6fbfb; stroke:none;" d="M144 525L145 526L144 525z"/>
<path style="fill:#5efcfb; stroke:none;" d="M145.667 525.333L146.333 525.667L145.667 525.333M184.667 525.333L185.333 525.667L184.667 525.333z"/>
<path style="fill:#e3ffff; stroke:none;" d="M186 525L186 526L189 526L186 525z"/>
<path style="fill:#a6fbfb; stroke:none;" d="M267 525L268 526L267 525M50.3333 526.667L50.6667 527.333L50.3333 526.667M54 526L55 527L54 526M63 526L64 527L63 526z"/>
<path style="fill:#e3ffff; stroke:none;" d="M145 526L145 527L149 527L145 526z"/>
<path style="fill:#a6fbfb; stroke:none;" d="M149 526L150 527L149 526z"/>
<path style="fill:#5efcfb; stroke:none;" d="M150 526L150 527L153 527L150 526M178 526L178 527L181 527L178 526z"/>
<path style="fill:#a6fbfb; stroke:none;" d="M181 526L182 527L181 526z"/>
<path style="fill:#e3ffff; stroke:none;" d="M182 526L182 527L186 527L182 526z"/>
<path style="fill:#5efcfb; stroke:none;" d="M267 526L268 527L267 526M270 526L271 527L270 526z"/>
<path style="fill:#a6fbfb; stroke:none;" d="M55 527L57 532L58 532L55 527z"/>
<path style="fill:#5efcfb; stroke:none;" d="M64 527L65 528L64 527M67 527L68 528L67 527z"/>
<path style="fill:#e3ffff; stroke:none;" d="M150 527L150 528L154 528L150 527z"/>
<path style="fill:#a6fbfb; stroke:none;" d="M154.667 527.333L155.333 527.667L154.667 527.333z"/>
<path style="fill:#5efcfb; stroke:none;" d="M156 527L156 528L163 528L156 527M168 527L168 528L175 528L168 527z"/>
<path style="fill:#a6fbfb; stroke:none;" d="M175.667 527.333L176.333 527.667L175.667 527.333z"/>
<path style="fill:#e3ffff; stroke:none;" d="M177 527L177 528L181 528L177 527z"/>
<path style="fill:#5efcfb; stroke:none;" d="M266 527L267 528L266 527z"/>
<path style="fill:#a6fbfb; stroke:none;" d="M270 527L271 528L270 527M51 528L52 529L51 528M64 528L65 529L64 528M68 528L69 529L68 528z"/>
<path style="fill:#e3ffff; stroke:none;" d="M155 528L155 529L176 529L155 528z"/>
<path style="fill:#a6fbfb; stroke:none;" d="M265 528L266 529L265 528z"/>
<path style="fill:#5efcfb; stroke:none;" d="M269 528L270 529L269 528M55.3333 529.667L55.6667 530.333L55.3333 529.667M65 529L66 530L65 529M68 529L69 530L68 529M265 529L266 530L265 529z"/>
<path style="fill:#a6fbfb; stroke:none;" d="M269 529L270 530L269 529M52 530L53 531L52 530M65 530L66 531L65 530M69 530L70 531L69 530M264 530L265 531L264 530z"/>
<path style="fill:#5efcfb; stroke:none;" d="M268 530L269 531L268 530z"/>
<path style="fill:#a6fbfb; stroke:none;" d="M53.3333 531.667L53.6667 532.333L53.3333 531.667z"/>
<path style="fill:#5efcfb; stroke:none;" d="M56 531L57 532L56 531M66 531L67 532L66 531z"/>
<path style="fill:#a6fbfb; stroke:none;" d="M70 531L71 532L70 531z"/>
<path style="fill:#5efcfb; stroke:none;" d="M54 532L60 542L61 542L54 532M57 532L59 535L57 532M70 532L71 533L70 532z"/>
<path style="fill:#e3ffff; stroke:none;" d="M71 532C77.5033 545.686 92.7046 559.766 107 565L107 564L71 532z"/>
<path style="fill:#5efcfb; stroke:none;" d="M263 532L264 533L263 532M267 532L268 533L267 532z"/>
<path style="fill:#a6fbfb; stroke:none;" d="M58 533L59 534L58 533z"/>
<path style="fill:#5efcfb; stroke:none;" d="M67 533L68 534L67 533z"/>
<path style="fill:#a6fbfb; stroke:none;" d="M71 533L72 534L71 533M262 533L263 534L262 533M266 533L267 534L266 533M54 534L55 535L54 534M59 534L61 537L59 534M67 534L68 535L67 534z"/>
<path style="fill:#5efcfb; stroke:none;" d="M262 534L263 535L262 534z"/>
<path style="fill:#a6fbfb; stroke:none;" d="M55.3333 535.667L55.6667 536.333L55.3333 535.667M68 535L69 536L68 535M72 535L73 536L72 535M261 535L262 536L261 535M265 535L266 536L265 535z"/>
<path style="fill:#5efcfb; stroke:none;" d="M59 536L60 537L59 536z"/>
<path style="fill:#a6fbfb; stroke:none;" d="M69 536L70 537L69 536M73 536L74 537L73 536M260 536L261 537L260 536z"/>
<path style="fill:#5efcfb; stroke:none;" d="M264 536L265 537L264 536M60 537L61 538L60 537M70 537L71 538L70 537M73 537L74 538L73 537z"/>
<path style="fill:#a6fbfb; stroke:none;" d="M259 537L260 538L259 537M57 538L58 539L57 538M61 538L62 539L61 538M70 538L71 539L70 538z"/>
<path style="fill:#5efcfb; stroke:none;" d="M74 538L75 539L74 538z"/>
<path style="fill:#a6fbfb; stroke:none;" d="M263 538L264 539L263 538M58.3333 539.667L58.6667 540.333L58.3333 539.667z"/>
<path style="fill:#5efcfb; stroke:none;" d="M61 539L66 544L61 539z"/>
<path style="fill:#a6fbfb; stroke:none;" d="M71 539L72 540L71 539z"/>
<path style="fill:#5efcfb; stroke:none;" d="M75 539L76 540L75 539M258 539L259 540L258 539z"/>
<path style="fill:#a6fbfb; stroke:none;" d="M262 539L263 540L262 539M63 540L64 541L63 540z"/>
<path style="fill:#5efcfb; stroke:none;" d="M72 540L73 541L72 540z"/>
<path style="fill:#a6fbfb; stroke:none;" d="M76 540L77 541L76 540M257 540L258 541L257 540z"/>
<path style="fill:#5efcfb; stroke:none;" d="M261 540L262 541L261 540z"/>
<path style="fill:#a6fbfb; stroke:none;" d="M59 541L60 542L59 541M64 541L65 542L64 541M72 541L73 542L72 541M256 541L257 542L256 541M261 541L262 542L261 541M60 542L61 543L60 542M65 542L66 543L65 542M73 542L74 543L73 542z"/>
<path style="fill:#5efcfb; stroke:none;" d="M77 542L78 543L77 542M256 542L257 543L256 542z"/>
<path style="fill:#e3ffff; stroke:none;" d="M260 542L238 562L238 563C247.272 558.589 256.146 550.386 262 542L260 542z"/>
<path style="fill:#5efcfb; stroke:none;" d="M61 543L61 544L74 556L61 543z"/>
<path style="fill:#a6fbfb; stroke:none;" d="M66 543L75 553L66 543M74 543L75 544L74 543z"/>
<path style="fill:#5efcfb; stroke:none;" d="M78 543L79 544L78 543z"/>
<path style="fill:#a6fbfb; stroke:none;" d="M259 543L260 544L259 543M62.3333 544.667L62.6667 545.333L62.3333 544.667M75 544L76 545L75 544z"/>
<path style="fill:#5efcfb; stroke:none;" d="M79 544L80 545L79 544z"/>
<path style="fill:#a6fbfb; stroke:none;" d="M253 544L254 545L253 544M258 544L259 545L258 544z"/>
<path style="fill:#5efcfb; stroke:none;" d="M66 545L67 546L66 545M76 545L77 546L76 545z"/>
<path style="fill:#a6fbfb; stroke:none;" d="M80 545L81 546L80 545M257 545L258 546L257 545M63 546L64 547L63 546z"/>
<path style="fill:#5efcfb; stroke:none;" d="M67 546L68 547L67 546z"/>
<path style="fill:#a6fbfb; stroke:none;" d="M81 546L82 547L81 546z"/>
<path style="fill:#5efcfb; stroke:none;" d="M252 546L253 547L252 546M256 546L257 547L256 546z"/>
<path style="fill:#a6fbfb; stroke:none;" d="M64 547L65 548L64 547z"/>
<path style="fill:#5efcfb; stroke:none;" d="M68 547L69 548L68 547z"/>
<path style="fill:#a6fbfb; stroke:none;" d="M77 547L78 548L77 547M82 547L83 548L82 547z"/>
<path style="fill:#5efcfb; stroke:none;" d="M251 547L252 548L251 547M255 547L256 548L255 547z"/>
<path style="fill:#a6fbfb; stroke:none;" d="M65 548L66 549L65 548z"/>
<path style="fill:#5efcfb; stroke:none;" d="M69 548L70 549L69 548z"/>
<path style="fill:#a6fbfb; stroke:none;" d="M78 548L79 549L78 548M83 548L84 549L83 548z"/>
<path style="fill:#5efcfb; stroke:none;" d="M250 548L251 549L250 548M254 548L255 549L254 548z"/>
<path style="fill:#a6fbfb; stroke:none;" d="M66 549L66 551L68 551L66 549z"/>
<path style="fill:#5efcfb; stroke:none;" d="M70 549L71 550L70 549z"/>
<path style="fill:#a6fbfb; stroke:none;" d="M79 549L80 550L79 549M84 549L85 550L84 549M248 549L249 550L248 549z"/>
<path style="fill:#5efcfb; stroke:none;" d="M249 549L250 550L249 549z"/>
<path style="fill:#a6fbfb; stroke:none;" d="M253 549L254 550L253 549z"/>
<path style="fill:#5efcfb; stroke:none;" d="M71 550L72 551L71 550z"/>
<path style="fill:#a6fbfb; stroke:none;" d="M80 550L81 551L80 550z"/>
<path style="fill:#5efcfb; stroke:none;" d="M81 550L82 551L81 550z"/>
<path style="fill:#a6fbfb; stroke:none;" d="M85 550L86 551L85 550M247 550L248 551L247 550z"/>
<path style="fill:#5efcfb; stroke:none;" d="M252 550L253 551L252 550z"/>
<path style="fill:#a6fbfb; stroke:none;" d="M68 551L69 552L68 551z"/>
<path style="fill:#5efcfb; stroke:none;" d="M72 551L73 552L72 551M86 551L87 552L86 551z"/>
<path style="fill:#a6fbfb; stroke:none;" d="M246 551L247 552L246 551M251 551L252 552L251 551M69 552L70 553L69 552z"/>
<path style="fill:#5efcfb; stroke:none;" d="M73 552L74 553L73 552M83 552L84 553L83 552M87 552L88 553L87 552z"/>
<path style="fill:#a6fbfb; stroke:none;" d="M245 552L246 553L245 552M250 552L251 553L250 552M70 553L71 554L70 553z"/>
<path style="fill:#5efcfb; stroke:none;" d="M74 553L74 554L86 562L86 561L74 553z"/>
<path style="fill:#a6fbfb; stroke:none;" d="M83 553L84 554L83 553z"/>
<path style="fill:#5efcfb; stroke:none;" d="M88 553L89 554L88 553z"/>
<path style="fill:#a6fbfb; stroke:none;" d="M244 553L245 554L244 553z"/>
<path style="fill:#5efcfb; stroke:none;" d="M249 553L250 554L249 553z"/>
<path style="fill:#a6fbfb; stroke:none;" d="M71 554L72 555L71 554M77 554L78 555L77 554M84 554L85 555L84 554M90 554L92 556L90 554z"/>
<path style="fill:#e3ffff; stroke:none;" d="M241 554L234 559L234 560L241 554z"/>
<path style="fill:#a6fbfb; stroke:none;" d="M242 554L243 555L242 554z"/>
<path style="fill:#5efcfb; stroke:none;" d="M243 554L244 555L243 554M247 554L248 555L247 554z"/>
<path style="fill:#a6fbfb; stroke:none;" d="M248 554L249 555L248 554M72 555L73 556L72 555M78 555L79 556L78 555z"/>
<path style="fill:#010101; stroke:none;" d="M82 555L85 558L82 555z"/>
<path style="fill:#a6fbfb; stroke:none;" d="M85 555L86 556L85 555z"/>
<path style="fill:#5efcfb; stroke:none;" d="M86 555L87 556L86 555M90 555L91 556L90 555z"/>
<path style="fill:#a6fbfb; stroke:none;" d="M241 555L242 556L241 555z"/>
<path style="fill:#5efcfb; stroke:none;" d="M246 555L247 556L246 555z"/>
<path style="fill:#a6fbfb; stroke:none;" d="M73 556L73 557L81 562L81 561L73 556z"/>
<path style="fill:#5efcfb; stroke:none;" d="M75 556L76 557L75 556z"/>
<path style="fill:#a6fbfb; stroke:none;" d="M79.6667 556.333L80.3333 556.667L79.6667 556.333z"/>
<path style="fill:#5efcfb; stroke:none;" d="M87 556L88 557L87 556M92 556L93 557L92 556M240 556L241 557L240 556M245 556L246 557L245 556M76 557L77 558L76 557z"/>
<path style="fill:#a6fbfb; stroke:none;" d="M81 557L82 558L81 557M88 557L89 558L88 557z"/>
<path style="fill:#5efcfb; stroke:none;" d="M93 557L94 558L93 557z"/>
<path style="fill:#a6fbfb; stroke:none;" d="M94 557L95 558L94 557M238 557L239 558L238 557M244 557L245 558L244 557z"/>
<path style="fill:#5efcfb; stroke:none;" d="M77 558L78 559L77 558z"/>
<path style="fill:#a6fbfb; stroke:none;" d="M82 558L83 559L82 558M89 558L90 559L89 558M95 558L96 559L95 558M237 558L238 559L237 558M243 558L244 559L243 558z"/>
<path style="fill:#5efcfb; stroke:none;" d="M78 559L79 560L78 559z"/>
<path style="fill:#a6fbfb; stroke:none;" d="M83 559L84 560L83 559z"/>
<path style="fill:#010101; stroke:none;" d="M86 559L86 560L89 561L86 559z"/>
<path style="fill:#a6fbfb; stroke:none;" d="M90 559L91 560L90 559z"/>
<path style="fill:#5efcfb; stroke:none;" d="M96 559L97 560L96 559z"/>
<path style="fill:#a6fbfb; stroke:none;" d="M235 559L236 560L235 559z"/>
<path style="fill:#5efcfb; stroke:none;" d="M236 559L237 560L236 559M241 559L242 560L241 559M79.6667 560.333L80.3333 560.667L79.6667 560.333z"/>
<path style="fill:#a6fbfb; stroke:none;" d="M85 560L86 561L85 560M91 560L92 561L91 560z"/>
<path style="fill:#5efcfb; stroke:none;" d="M92 560L93 561L92 560M97 560L98 561L97 560z"/>
<path style="fill:#a6fbfb; stroke:none;" d="M98 560L99 561L98 560z"/>
<path style="fill:#e3ffff; stroke:none;" d="M232 560L213 569L213 570L233 561L232 560z"/>
<path style="fill:#a6fbfb; stroke:none;" d="M233 560L234 561L233 560z"/>
<path style="fill:#5efcfb; stroke:none;" d="M234 560L235 561L234 560z"/>
<path style="fill:#a6fbfb; stroke:none;" d="M240 560L241 561L240 560z"/>
<path style="fill:#5efcfb; stroke:none;" d="M81 561L82 562L81 561z"/>
<path style="fill:#a6fbfb; stroke:none;" d="M86 561L86 562L97 567L97 566L86 561M93 561L94 562L93 561z"/>
<path style="fill:#5efcfb; stroke:none;" d="M99 561L100 562L99 561z"/>
<path style="fill:#a6fbfb; stroke:none;" d="M232 561L233 562L232 561z"/>
<path style="fill:#5efcfb; stroke:none;" d="M238 561L239 562L238 561z"/>
<path style="fill:#a6fbfb; stroke:none;" d="M82 562L87 566L87 565L82 562z"/>
<path style="fill:#5efcfb; stroke:none;" d="M83 562L84 563L83 562M87 562L88 563L87 562z"/>
<path style="fill:#a6fbfb; stroke:none;" d="M95 562L96 563L95 562z"/>
<path style="fill:#5efcfb; stroke:none;" d="M101 562L102 563L101 562M230 562L231 563L230 562M236 562L237 563L236 562z"/>
<path style="fill:#a6fbfb; stroke:none;" d="M237 562L238 563L237 562z"/>
<path style="fill:#5efcfb; stroke:none;" d="M84 563L85 564L84 563M88.6667 563.333L89.3333 563.667L88.6667 563.333z"/>
<path style="fill:#010101; stroke:none;" d="M93 563L94 564L93 563z"/>
<path style="fill:#a6fbfb; stroke:none;" d="M96 563L97 564L96 563z"/>
<path style="fill:#5efcfb; stroke:none;" d="M102 563L103 564L102 563z"/>
<path style="fill:#a6fbfb; stroke:none;" d="M103 563L104 564L103 563M228 563L229 564L228 563z"/>
<path style="fill:#5efcfb; stroke:none;" d="M229 563L230 564L229 563z"/>
<path style="fill:#a6fbfb; stroke:none;" d="M235 563L234 565L235 563z"/>
<path style="fill:#e3ffff; stroke:none;" d="M236 563L237 564L236 563z"/>
<path style="fill:#5efcfb; stroke:none;" d="M85 564L86 565L85 564M90 564L93 566L90 564M98 564L99 565L98 564M104 564L105 565L104 564M227 564L228 565L227 564M233 564L234 565L233 564z"/>
<path style="fill:#e3ffff; stroke:none;" d="M235 564L236 565L235 564z"/>
<path style="fill:#5efcfb; stroke:none;" d="M87 565L87 566L90 567L87 565z"/>
<path style="fill:#a6fbfb; stroke:none;" d="M99 565L100 566L99 565z"/>
<path style="fill:#5efcfb; stroke:none;" d="M100 565L101 566L100 565M106 565L107 566L106 565z"/>
<path style="fill:#a6fbfb; stroke:none;" d="M107 565L108 566L107 565z"/>
<path style="fill:#e3ffff; stroke:none;" d="M108 565L108 566L114 568L114 567L108 565z"/>
<path style="fill:#a6fbfb; stroke:none;" d="M224 565L225 566L224 565z"/>
<path style="fill:#5efcfb; stroke:none;" d="M225 565L226 566L225 565M231 565L232 566L231 565z"/>
<path style="fill:#a6fbfb; stroke:none;" d="M232 565L233 566L232 565z"/>
<path style="fill:#e3ffff; stroke:none;" d="M233.667 565.333L234.333 565.667L233.667 565.333z"/>
<path style="fill:#a6fbfb; stroke:none;" d="M88 566L89 567L88 566z"/>
<path style="fill:#5efcfb; stroke:none;" d="M94 566L95 567L94 566z"/>
<path style="fill:#a6fbfb; stroke:none;" d="M101 566L102 567L101 566z"/>
<path style="fill:#5efcfb; stroke:none;" d="M108 566L109 567L108 566z"/>
<path style="fill:#a6fbfb; stroke:none;" d="M222 566L223 567L222 566z"/>
<path style="fill:#5efcfb; stroke:none;" d="M223 566L224 567L223 566M229 566L230 567L229 566z"/>
<path style="fill:#a6fbfb; stroke:none;" d="M230 566L231 567L230 566z"/>
<path style="fill:#e3ffff; stroke:none;" d="M231 566L232 567L231 566z"/>
<path style="fill:#a6fbfb; stroke:none;" d="M89 567L89 568L92 569L89 567z"/>
<path style="fill:#5efcfb; stroke:none;" d="M91 567L91 568L98 571L98 570L91 567M95 567L95 568L98 568L95 567z"/>
<path style="fill:#a6fbfb; stroke:none;" d="M98 567L98 568L102 569L102 568L98 567M103 567L104 568L103 567M111 567L112 568L111 567z"/>
<path style="fill:#5efcfb; stroke:none;" d="M220 567L221 568L220 567M227 567L228 568L227 567z"/>
<path style="fill:#a6fbfb; stroke:none;" d="M228 567L229 568L228 567z"/>
<path style="fill:#e3ffff; stroke:none;" d="M229.667 567.333L230.333 567.667L229.667 567.333z"/>
<path style="fill:#5efcfb; stroke:none;" d="M99 568L100 569L99 568z"/>
<path style="fill:#a6fbfb; stroke:none;" d="M105 568L106 569L105 568z"/>
<path style="fill:#5efcfb; stroke:none;" d="M106 568L107 569L106 568M113 568L114 569L113 568z"/>
<path style="fill:#a6fbfb; stroke:none;" d="M114 568L115 569L114 568z"/>
<path style="fill:#e3ffff; stroke:none;" d="M115 568L115 569L119 570L119 569L115 568z"/>
<path style="fill:#a6fbfb; stroke:none;" d="M217 568L218 569L217 568z"/>
<path style="fill:#5efcfb; stroke:none;" d="M218 568L219 569L218 568M225 568L226 569L225 568z"/>
<path style="fill:#a6fbfb; stroke:none;" d="M226 568L227 569L226 568z"/>
<path style="fill:#e3ffff; stroke:none;" d="M227.667 568.333L228.333 568.667L227.667 568.333z"/>
<path style="fill:#a6fbfb; stroke:none;" d="M93.6667 569.333L94.3333 569.667L93.6667 569.333z"/>
<path style="fill:#5efcfb; stroke:none;" d="M100 569L100 570L104 571L104 570L100 569z"/>
<path style="fill:#a6fbfb; stroke:none;" d="M103 569L103 570L107 571L107 570L103 569z"/>
<path style="fill:#5efcfb; stroke:none;" d="M107 569L108 570L107 569M115 569L116 570L115 569z"/>
<path style="fill:#a6fbfb; stroke:none;" d="M215 569L216 570L215 569z"/>
<path style="fill:#5efcfb; stroke:none;" d="M223 569L224 570L223 569z"/>
<path style="fill:#a6fbfb; stroke:none;" d="M224 569L225 570L224 569z"/>
<path style="fill:#e3ffff; stroke:none;" d="M225.667 569.333L226.333 569.667L225.667 569.333z"/>
<path style="fill:#a6fbfb; stroke:none;" d="M95 570L96 571L95 570M108 570L108 571L113 573L113 572L108 570z"/>
<path style="fill:#5efcfb; stroke:none;" d="M109 570L110 571L109 570M117 570L118 571L117 570z"/>
<path style="fill:#a6fbfb; stroke:none;" d="M118.667 570.333L119.333 570.667L118.667 570.333z"/>
<path style="fill:#e3ffff; stroke:none;" d="M120 570L120 571L125 572L125 571L120 570M206 571L206 572L212 571L206 571z"/>
<path style="fill:#a6fbfb; stroke:none;" d="M212 570L213 571L212 570z"/>
<path style="fill:#5efcfb; stroke:none;" d="M213.667 570.333L214.333 570.667L213.667 570.333M221 570L222 571L221 570z"/>
<path style="fill:#a6fbfb; stroke:none;" d="M222 570L223 571L222 570z"/>
<path style="fill:#e3ffff; stroke:none;" d="M223.667 570.333L224.333 570.667L223.667 570.333z"/>
<path style="fill:#a6fbfb; stroke:none;" d="M98 571L98 572L101 573L98 571z"/>
<path style="fill:#5efcfb; stroke:none;" d="M100 571L101 572L100 571M106 571L106 572L109 572L106 571M112 571L113 572L112 571M120 571L121 572L120 571z"/>
<path style="fill:#a6fbfb; stroke:none;" d="M121 571L122 572L121 571M209 571L210 572L209 571z"/>
<path style="fill:#5efcfb; stroke:none;" d="M210 571L211 572L210 571M219 571L220 572L219 571z"/>
<path style="fill:#e3ffff; stroke:none;" d="M220.667 571.333L221.333 571.667L220.667 571.333z"/>
<path style="fill:#5efcfb; stroke:none;" d="M101 572L101 573L107 574L101 572M109.667 572.333L110.333 572.667L109.667 572.333M113 572L113 573L120 575L120 574L113 572M124 572L125 573L124 572z"/>
<path style="fill:#a6fbfb; stroke:none;" d="M125 572L126 573L125 572z"/>
<path style="fill:#e3ffff; stroke:none;" d="M126 572L126 573L129 573L126 572M203.667 572.333L204.333 572.667L203.667 572.333z"/>
<path style="fill:#a6fbfb; stroke:none;" d="M205 572L206 573L205 572z"/>
<path style="fill:#5efcfb; stroke:none;" d="M206.667 572.333L207.333 572.667L206.667 572.333M216 572L217 573L216 572z"/>
<path style="fill:#e3ffff; stroke:none;" d="M217 572L217 573L220 573L217 572z"/>
<path style="fill:#a6fbfb; stroke:none;" d="M103.667 573.333L104.333 573.667L103.667 573.333z"/>
<path style="fill:#5efcfb; stroke:none;" d="M127.667 573.333L128.333 573.667L127.667 573.333z"/>
<path style="fill:#a6fbfb; stroke:none;" d="M129.667 573.333L130.333 573.667L129.667 573.333z"/>
<path style="fill:#e3ffff; stroke:none;" d="M131.667 573.333L132.333 573.667L131.667 573.333M198 573L198 574L201 574L198 573z"/>
<path style="fill:#a6fbfb; stroke:none;" d="M201 573L202 574L201 573z"/>
<path style="fill:#5efcfb; stroke:none;" d="M202.667 573.333L203.333 573.667L202.667 573.333M212.667 573.333L213.333 573.667L212.667 573.333z"/>
<path style="fill:#a6fbfb; stroke:none;" d="M214 573L215 574L214 573z"/>
<path style="fill:#e3ffff; stroke:none;" d="M215.667 573.333L216.333 573.667L215.667 573.333z"/>
<path style="fill:#a6fbfb; stroke:none;" d="M105 574L105 575L108 575L105 574z"/>
<path style="fill:#5efcfb; stroke:none;" d="M108 574L108 575L113 576L113 575L108 574M132 574L133 575L132 574z"/>
<path style="fill:#a6fbfb; stroke:none;" d="M133 574L134 575L133 574z"/>
<path style="fill:#e3ffff; stroke:none;" d="M134 574L134 575L139 575L134 574M193 574L193 575L197 575L193 574z"/>
<path style="fill:#a6fbfb; stroke:none;" d="M197 574L198 575L197 574z"/>
<path style="fill:#5efcfb; stroke:none;" d="M198 574L199 575L198 574M209 574L210 575L209 574z"/>
<path style="fill:#a6fbfb; stroke:none;" d="M210 574L211 575L210 574z"/>
<path style="fill:#e3ffff; stroke:none;" d="M211 574L211 575L214 575L211 574z"/>
<path style="fill:#a6fbfb; stroke:none;" d="M109 575L109 576L115 577L115 576L109 575z"/>
<path style="fill:#5efcfb; stroke:none;" d="M136.667 575.333L137.333 575.667L136.667 575.333z"/>
<path style="fill:#a6fbfb; stroke:none;" d="M138.667 575.333L139.333 575.667L138.667 575.333z"/>
<path style="fill:#e3ffff; stroke:none;" d="M140 575L140 576L144 576L140 575M187 575L187 576L191 576L187 575z"/>
<path style="fill:#a6fbfb; stroke:none;" d="M191.667 575.333L192.333 575.667L191.667 575.333z"/>
<path style="fill:#5efcfb; stroke:none;" d="M193 575L193 576L196 576L193 575M206 575L207 576L206 575z"/>
<path style="fill:#a6fbfb; stroke:none;" d="M207.667 575.333L208.333 575.667L207.667 575.333z"/>
<path style="fill:#e3ffff; stroke:none;" d="M209.667 575.333L210.333 575.667L209.667 575.333z"/>
<path style="fill:#5efcfb; stroke:none;" d="M115 576L115 577L121 578L121 577L115 576M142 576L143 577L142 576z"/>
<path style="fill:#a6fbfb; stroke:none;" d="M143.667 576.333L144.333 576.667L143.667 576.333z"/>
<path style="fill:#e3ffff; stroke:none;" d="M145 576L145 577L155 577L145 576M175 576L175 577L185 577L175 576z"/>
<path style="fill:#a6fbfb; stroke:none;" d="M185 576L185 577L188 577L185 576z"/>
<path style="fill:#5efcfb; stroke:none;" d="M188.667 576.333L189.333 576.667L188.667 576.333M203 576L204 577L203 576z"/>
<path style="fill:#a6fbfb; stroke:none;" d="M204 576L205 577L204 576z"/>
<path style="fill:#e3ffff; stroke:none;" d="M205 576L205 577L208 577L205 576z"/>
<path style="fill:#a6fbfb; stroke:none;" d="M116.667 577.333L117.333 577.667L116.667 577.333z"/>
<path style="fill:#5efcfb; stroke:none;" d="M150 577L150 578L154 578L150 577z"/>
<path style="fill:#a6fbfb; stroke:none;" d="M154 577L154 578L161 578L154 577z"/>
<path style="fill:#e3ffff; stroke:none;" d="M161 577L161 578L171 578L161 577z"/>
<path style="fill:#a6fbfb; stroke:none;" d="M171 577L171 578L177 578L171 577z"/>
<path style="fill:#5efcfb; stroke:none;" d="M177 577L177 578L180 578L177 577M198 577L199 578L198 577z"/>
<path style="fill:#a6fbfb; stroke:none;" d="M199.667 577.333L200.333 577.667L199.667 577.333z"/>
<path style="fill:#e3ffff; stroke:none;" d="M201 577L201 578L205 578L201 577z"/>
<path style="fill:#a6fbfb; stroke:none;" d="M120 578L120 579L129 580L120 578z"/>
<path style="fill:#5efcfb; stroke:none;" d="M126 578L126 579L129 579L126 578M191 578L191 579L194 579L191 578z"/>
<path style="fill:#a6fbfb; stroke:none;" d="M194 578L194 579L197 579L194 578z"/>
<path style="fill:#e3ffff; stroke:none;" d="M197 578L197 579L200 579L197 578M123 579L123 580L126 580L123 579z"/>
<path style="fill:#5efcfb; stroke:none;" d="M129 579L129 580L141 580L129 579M185 579L185 580L188 580L185 579z"/>
<path style="fill:#a6fbfb; stroke:none;" d="M188 579L189 580L188 579z"/>
<path style="fill:#e3ffff; stroke:none;" d="M189 579L189 580L195 580L189 579M127 580L127 581L148 582L127 580z"/>
<path style="fill:#a6fbfb; stroke:none;" d="M139 580L139 581L163 582L139 580z"/>
<path style="fill:#5efcfb; stroke:none;" d="M148 580L148 581L155 581L148 580M173 580L173 581L178 581L173 580z"/>
<path style="fill:#a6fbfb; stroke:none;" d="M178 580L178 581L181 581L178 580z"/>
<path style="fill:#e3ffff; stroke:none;" d="M181 580L181 581L188 581L181 580M150 582L150 583L178 582L150 582z"/>
</svg>